<svg width="232" height="24" viewBox="0 0 232 24" fill="none" xmlns="http://www.w3.org/2000/svg">
<path d="M10.784 0.559999C13.504 0.559999 15.6233 1.21733 17.142 2.532C18.6833 3.824 19.454 5.66 19.454 8.04C19.454 10.42 18.6833 12.2673 17.142 13.582C15.6233 14.874 13.504 15.52 10.784 15.52H6.33V23H0.482V0.559999H10.784ZM9.866 11.134C12.3367 11.134 13.572 10.1027 13.572 8.04C13.572 5.97733 12.3367 4.946 9.866 4.946H6.33V11.134H9.866ZM33.2229 0.559999C35.8976 0.559999 37.9716 1.18333 39.4449 2.43C40.9409 3.67667 41.6889 5.354 41.6889 7.462C41.6889 9.13933 41.2923 10.522 40.4989 11.61C39.7283 12.6753 38.6176 13.4573 37.1669 13.956L43.0149 23H36.5549L31.7609 14.806H28.2589V23H22.5129V0.559999H33.2229ZM32.4069 10.658C33.5403 10.658 34.3903 10.4313 34.9569 9.978C35.5236 9.52467 35.8069 8.79933 35.8069 7.802C35.8069 5.92067 34.6736 4.98 32.4069 4.98H28.2589V10.658H32.4069ZM55.1059 0.219999C57.3726 0.219999 59.3219 0.684666 60.9539 1.614C62.6086 2.52067 63.8779 3.83533 64.7619 5.558C65.6459 7.28067 66.0879 9.35467 66.0879 11.78C66.0879 14.2053 65.6459 16.2793 64.7619 18.002C63.8779 19.7247 62.6086 21.0507 60.9539 21.98C59.3219 22.8867 57.3726 23.34 55.1059 23.34C52.8166 23.34 50.8446 22.8867 49.1899 21.98C47.5579 21.0507 46.2999 19.7247 45.4159 18.002C44.5319 16.2793 44.0899 14.2053 44.0899 11.78C44.0899 9.35467 44.5319 7.28067 45.4159 5.558C46.2999 3.83533 47.5579 2.52067 49.1899 1.614C50.8446 0.684666 52.8166 0.219999 55.1059 0.219999ZM55.1059 4.81C53.4739 4.81 52.2273 5.39933 51.3659 6.578C50.5046 7.734 50.0739 9.468 50.0739 11.78C50.0739 14.092 50.5046 15.8373 51.3659 17.016C52.2273 18.172 53.4739 18.75 55.1059 18.75C56.7153 18.75 57.9506 18.172 58.8119 17.016C59.6733 15.8373 60.1039 14.092 60.1039 11.78C60.1039 9.468 59.6733 7.734 58.8119 6.578C57.9506 5.39933 56.7153 4.81 55.1059 4.81ZM69.4303 23V0.559999H80.3443C83.1096 0.559999 85.1496 1.08133 86.4643 2.124C87.7789 3.16667 88.4363 4.66267 88.4363 6.612C88.4363 7.88133 88.0623 8.98067 87.3143 9.91C86.5663 10.8393 85.4216 11.4173 83.8803 11.644V11.678C85.6029 11.9047 86.8836 12.5053 87.7223 13.48C88.5836 14.432 89.0143 15.588 89.0143 16.948C89.0143 18.8747 88.3229 20.3707 86.9403 21.436C85.5803 22.4787 83.5516 23 80.8543 23H69.4303ZM75.0743 9.74H79.3243C81.4096 9.74 82.4523 8.924 82.4523 7.292C82.4523 5.66 81.4096 4.844 79.3243 4.844H75.0743V9.74ZM75.0743 18.886H79.8683C81.9763 18.886 83.0303 18.0473 83.0303 16.37C83.0303 14.738 81.9763 13.922 79.8683 13.922H75.0743V18.886ZM97.8405 18.478H109.094V23H91.9925V0.559999H97.8405V18.478ZM111.766 23V0.559999H129.242V5.082H117.614V9.638H126.862V13.888H117.614V18.478H129.684V23H111.766ZM158.511 0.559999V23H153.343V12.698L153.513 5.796H153.445L147.903 23H143.177L137.635 5.796H137.567L137.737 12.698V23H132.535V0.559999H140.865L144.401 11.984L145.659 16.744H145.727L147.019 12.018L150.521 0.559999H158.511Z" fill="#18191F"/>
<path d="M172.864 0.219999C175.131 0.219999 177.08 0.684666 178.712 1.614C180.367 2.52067 181.636 3.83533 182.52 5.558C183.404 7.28067 183.846 9.35467 183.846 11.78C183.846 14.2053 183.404 16.2793 182.52 18.002C181.636 19.7247 180.367 21.0507 178.712 21.98C177.08 22.8867 175.131 23.34 172.864 23.34C170.575 23.34 168.603 22.8867 166.948 21.98C165.316 21.0507 164.058 19.7247 163.174 18.002C162.29 16.2793 161.848 14.2053 161.848 11.78C161.848 9.35467 162.29 7.28067 163.174 5.558C164.058 3.83533 165.316 2.52067 166.948 1.614C168.603 0.684666 170.575 0.219999 172.864 0.219999ZM172.864 4.81C171.232 4.81 169.985 5.39933 169.124 6.578C168.263 7.734 167.832 9.468 167.832 11.78C167.832 14.092 168.263 15.8373 169.124 17.016C169.985 18.172 171.232 18.75 172.864 18.75C174.473 18.75 175.709 18.172 176.57 17.016C177.431 15.8373 177.862 14.092 177.862 11.78C177.862 9.468 177.431 7.734 176.57 6.578C175.709 5.39933 174.473 4.81 172.864 4.81ZM207.418 0.559999V23H200.924L193.954 10.862L192.254 7.53H192.22L192.356 11.678V23H187.188V0.559999H193.682L200.652 12.698L202.352 16.03H202.386L202.25 11.882V0.559999H207.418ZM220.992 23.34C218.997 23.34 217.218 22.898 215.654 22.014C214.112 21.13 212.911 19.8267 212.05 18.104C211.188 16.3813 210.758 14.2847 210.758 11.814C210.758 9.41133 211.211 7.34867 212.118 5.626C213.024 3.88067 214.316 2.54333 215.994 1.614C217.694 0.684666 219.688 0.219999 221.978 0.219999C224.539 0.219999 226.59 0.684666 228.132 1.614C229.696 2.52067 230.908 3.97133 231.77 5.966L226.364 8.108C226.069 6.952 225.548 6.11333 224.8 5.592C224.052 5.07067 223.122 4.81 222.012 4.81C220.334 4.81 219.031 5.41067 218.102 6.612C217.195 7.79067 216.742 9.51333 216.742 11.78C216.742 14.1827 217.206 15.9733 218.136 17.152C219.065 18.308 220.459 18.886 222.318 18.886C223.61 18.886 224.686 18.58 225.548 17.968C226.409 17.356 226.84 16.4153 226.84 15.146V14.806H221.706V10.896H231.804V23H227.826L227.588 20.246C226.953 21.2433 226.08 22.014 224.97 22.558C223.882 23.0793 222.556 23.34 220.992 23.34Z" fill="#5ECC5B"/>
</svg>
